# xmcd
#
# Track frame offsets: 
#        150
#        4865
#        20521
#        42070
#        62914
#        89865
#        108189
#        128878
#        155720
#        180737
#        205239
#        240776
#        283247
#        312125
#
# Disc length: 4351 seconds
#
# Revision: 0
# Processed by: cddbd v1.5.2PL0 Copyright (c) Steve Scherf et al.
# Submitted via: ExactAudioCopy v1.0b3
#
DISCID=be10fd0e
DTITLE=Martin Turner - The Beauty of Chaos
DYEAR=2018
DGENRE=Hard Rock
TTITLE0=Intro The Big Bang (Overture)
TTITLE1=The Beauty of Chaos
TTITLE2=Written in the Stars
TTITLE3=Lovers
TTITLE4=Vapour Trail
TTITLE5=The Lonely Star
TTITLE6=For My Lady
TTITLE7=Falling Sands
TTITLE8=Pretty Little Girls
TTITLE9=Mystify Me
TTITLE10=Interstellar Rockstar
TTITLE11=The Pilgrim
TTITLE12=Lady Jay
TTITLE13=Blind Eye
EXTD=
EXTT0=
EXTT1=
EXTT2=
EXTT3=
EXTT4=
EXTT5=
EXTT6=
EXTT7=
EXTT8=
EXTT9=
EXTT10=
EXTT11=
EXTT12=
EXTT13=
PLAYORDER=
